<?xml version="1.0" encoding="utf-8"?>
<!-- Generator: Adobe Illustrator 16.0.0, SVG Export Plug-In . SVG Version: 6.00 Build 0)  -->
<!DOCTYPE svg PUBLIC "-//W3C//DTD SVG 1.1//EN" "http://www.w3.org/Graphics/SVG/1.1/DTD/svg11.dtd">
<svg version="1.1" id="Layer_1" xmlns="http://www.w3.org/2000/svg" xmlns:xlink="http://www.w3.org/1999/xlink" x="0px" y="0px"
	 width="358.915px" height="99.5px" viewBox="0 0 358.915 99.5" enable-background="new 0 0 358.915 99.5" xml:space="preserve">
<rect y="68.913" fill="#ABABAB" width="359.5" height="31"/>
<g>
	<path fill="#ABABAB" d="M215.32,1.871c3.549-2.515,7.752-1.672,11.572-1.794c3.398-0.11,7.643,1.096,8.201,5.293
		c0.915,5.502-0.523,11.315-0.68,16.951c-3.199-0.011-6.398-0.011-9.6,0c0.283-4.34,0.898-8.702,0.849-13.021
		c-1.056-0.177-2.132-0.233-3.216-0.177c-1.455,15.768-2.653,31.546-3.777,47.313c-0.576,2.47,3.643,2.612,3.396,0.032
		c0.541-4.571,0.732-9.146,1.124-13.72c3.209,0.014,6.419,0.014,9.63-0.011c-0.516,5.404-0.773,10.807-1.349,16.2
		c-0.443,3.067-1.853,6.854-5.013,7.507c-4.571,0.897-9.235,0.819-13.67,0c-3.133-0.753-4.467-4.473-4.153-7.815
		c1.171-16.211,2.562-32.422,3.782-48.631C212.634,7.142,213.119,3.909,215.32,1.871z"/>
	<path fill="#ABABAB" d="M266.029,5.547c1.721-4.329,6.002-5.868,9.803-5.492c4.204,0.089,10.297-0.83,11.953,4.396
		c0.564,5.759-0.672,11.682-0.863,17.517c-3.026-0.043-6.058-0.043-9.088-0.032c0.312-4.574,0.955-9.168,0.924-13.72
		c-1.036-0.177-2.078-0.265-3.128-0.288c-0.417,4.905-1.137,9.845-1.022,14.717c2.848,6.232,9.943,9.079,11.143,16.542
		c0.458,5.725-0.605,11.592-0.922,17.383c-0.303,3.709-1.404,8.903-5.402,9.877c-4.615,0.854-9.383,0.94-13.818-0.143
		c-2.912-0.854-3.265-4.485-3.72-7.331c0.482-5.226,0.847-10.463,1.28-15.701c3.189,0,6.391,0,9.59,0
		c-0.389,5.426-1.008,10.863-1.105,16.278c0.789-0.233,2.364-0.698,3.153-0.933c0.609-5.058,1.215-10.196,1.054-15.235
		c-2.782-6.676-10.063-9.954-11.372-17.692C264.596,19,265.378,12.257,266.029,5.547z"/>
	<path fill="#ABABAB" d="M42.518,1.194c3.45,0,6.91,0,10.36,0c0.88,11.903,2.492,23.65,3.279,35.578
		c1.834-11.825,2.074-23.718,3.231-35.578c3.03,0,6.06,0,9.08,0c-1.721,21.78-3.441,43.549-5.151,65.318
		c-3.604,0.043-7.197,0.088-10.763-0.21C51.8,54.698,50.571,43.171,49.188,31.7c-1.486,11.592-1.935,23.219-3.001,34.823
		c-2.95,0-5.891,0-8.83,0C39.077,44.743,40.797,22.975,42.518,1.194z"/>
	<path fill="#ABABAB" d="M99.147,1.194c7.07,0,14.13,0,21.2,0c-0.242,2.936-0.474,5.87-0.686,8.805
		c-1.944,0.054-3.888,0.1-5.825,0.188c-0.509,7.706-1.358,15.424-1.667,23.13c-1.194,11.062-1.809,22.134-2.764,33.207
		c-3.21,0-6.42,0-9.62,0c0.264-2.957,0.387-5.902,0.58-8.858c0.596-5.901,1.184-11.814,1.31-17.716
		c1.212-9.909,1.638-19.843,2.562-29.763c-1.934-0.088-3.86-0.134-5.795-0.188C98.693,7.064,98.915,4.13,99.147,1.194z"/>
	<path fill="#ABABAB" d="M123.517,1.194c3.27,0,6.55,0,9.83,0c-0.739,9.224-1.447,18.437-2.196,27.66c0.95,0,2.87,0,3.82,0
		c0.709-9.224,1.457-18.437,2.175-27.66c3.32,0,6.64,0,9.959,0c-1.721,21.78-3.441,43.549-5.162,65.329c-3.319,0-6.639,0-9.959,0
		c0.768-9.589,1.505-19.179,2.283-28.768c-0.95,0-2.87,0-3.82,0c-0.738,9.589-1.516,19.179-2.263,28.768c-3.28,0-6.561,0-9.83,0
		C120.076,44.743,121.796,22.975,123.517,1.194z"/>
	<path fill="#ABABAB" d="M152.026,1.194c5.811,0,11.631,0,17.441,0c-0.233,2.946-0.466,5.892-0.688,8.837
		c-2.651,0.011-5.303,0.032-7.953,0.167c-0.449,6.178-0.938,12.356-1.465,18.535c2.342,0.11,4.679,0.143,7.025,0.188
		c-0.251,2.922-0.482,5.846-0.693,8.77c-2.352,0.032-4.695,0.075-7.055,0.188c-0.477,6.545-0.995,13.1-1.552,19.644
		c2.629,0.132,5.278,0.153,7.927,0.164c-0.242,2.945-0.475,5.892-0.708,8.837c-5.811,0-11.631,0-17.441,0
		C148.585,44.743,150.306,22.975,152.026,1.194z"/>
	<path fill="#ABABAB" d="M291.517,1.194c7.15,0,14.311,0,21.461,0c-0.233,2.957-0.466,5.902-0.7,8.858c-1.91,0-3.83,0-5.74,0
		c-1.497,18.823-2.975,37.647-4.462,56.471c-3.33,0-6.66,0-9.98,0c1.487-18.823,2.965-37.647,4.462-56.471c-1.91,0-3.83,0-5.74,0
		C291.051,7.097,291.283,4.151,291.517,1.194z"/>
	<path fill="#ABABAB" d="M316.147,1.194c3.279,0,6.55,0,9.83,0c-1.487,18.824-2.975,37.647-4.462,56.471c2.449,0,4.91,0,7.369,0
		c-0.243,2.956-0.477,5.901-0.7,8.858c-5.74,0-11.47,0-17.199,0C312.717,44.743,314.437,22.975,316.147,1.194z"/>
	<path fill="#ABABAB" d="M336.517,1.194c5.9,0,11.811,0,17.721,0c-0.233,2.957-0.466,5.902-0.699,8.848
		c-2.642,0.011-5.271,0.011-7.903,0.043c-0.484,6.257-0.979,12.503-1.482,18.759c2.328,0.021,4.667,0.032,7.006,0.043
		c-0.242,2.946-0.475,5.892-0.697,8.837c-2.342,0.011-4.682,0.021-7.014,0.043c-0.514,6.622-1.037,13.244-1.57,19.866
		c2.629,0.032,5.258,0.032,7.897,0.043c-0.232,2.945-0.466,5.891-0.699,8.848c-5.91,0-11.82,0-17.721,0
		C333.076,44.743,334.796,22.975,336.517,1.194z"/>
	<path fill="#ABABAB" d="M95.498,10.109c0.337-3.51-0.292-7.818-3.53-9.113c-3.864-1.473-8.222-0.863-12.345-0.82
		c-3.096,0.078-6.555,2.349-6.93,6.079c-1.192,8.625-1.277,17.295-2.37,25.943c-0.361,9.124-1.513,18.27-1.935,27.394
		c-0.411,3.556,1.959,6.843,5.16,7.087c4.309,0.52,8.769,0.653,13.162-0.276c3.507-0.976,4.729-5.427,5.016-8.815
		C93.037,41.766,94.248,25.931,95.498,10.109z M80.31,58.176c-2.104,0.94-2.4-2.282-2.079-3.811
		c1.214-14.98,2.358-29.972,3.582-44.955c1.239-0.11,2.495-0.188,3.738-0.231c-1.07,15.059-2.38,30.117-3.5,45.176
		C81.782,55.617,82.208,58.329,80.31,58.176z"/>
	<path fill="#ABABAB" d="M192.865,43.217c0.145-3.346-1.894-5.902-4.68-6.711c3.014-0.809,5.447-3.51,5.789-6.941
		c0.767-6.934,1.316-13.897,1.635-20.828c0.158-3.766-2.303-7.054-5.721-7.318c-5.57-0.521-11.254-0.078-16.863-0.224
		c-1.721,21.78-3.441,43.549-5.162,65.329c3.18,0,6.361,0,9.541,0c0.66-8.482,1.34-16.964,2-25.445
		c1.244,0.077,2.486,0.177,3.738,0.287c-0.503,8.383-1.297,16.775-1.918,25.158c3.318,0,6.639,0,9.959,0
		C191.678,58.751,192.633,50.979,192.865,43.217z M183.89,31.899c-1.268,0.1-2.534,0.178-3.79,0.244
		c0.641-7.718,1.242-15.447,1.832-23.177c1.244,0.078,2.486,0.167,3.739,0.267C185.214,16.785,184.596,24.348,183.89,31.899z"/>
	<path fill="#ABABAB" d="M34.267,1.194c-4.99,0-9.97,0-14.95,0c-3.819,21.759-7.163,43.581-11.161,65.318
		c3.229,0.011,6.45,0.011,9.669,0.011c0.748-5.548,1.278-11.116,2.423-16.62c1.739,0.011,3.488,0.021,5.228,0.032
		c0.256,5.493-0.003,11.052-0.131,16.588c3.19,0,6.37,0,9.551,0C34.464,44.775,34.699,22.942,34.267,1.194z M21.165,41.089
		c0.278-1.107,0.565-2.215,0.862-3.309c0.989-8.461,2.256-16.91,3.811-25.325c0.502,9.334-0.531,18.869,0.206,28.146
		C24.42,40.9,22.792,40.989,21.165,41.089z"/>
	<path fill="#ABABAB" d="M258.883,1.372c-5.096-0.32-10.239-0.144-15.368-0.166c-2.765,18.159-6.185,36.263-8.979,54.422
		c-0.846,3.599-1.293,7.253-1.781,10.896c3.1,0,6.21,0,9.312-0.011c0.589-5.569,1.815-11.084,2.396-16.652
		c1.874,0.064,3.76,0.121,5.633,0.21c-0.215,5.501-0.561,11.016-0.17,16.453c3.09,0,6.17,0.011,9.262-0.021
		C259.051,44.8,258.604,23.119,258.883,1.372z M245.834,41.089c1.154-9.533,2.773-19.033,4.057-28.556
		c0.18,2.158,0.268,4.341,0.365,6.512c0.031,7.308-0.186,14.637-0.164,21.944C248.67,41.023,247.247,41.057,245.834,41.089z"/>
</g>
<g>
	<path fill="#E0E0E0" d="M2.806,71.612c1.555-0.014,3.122-0.058,4.655,0.121c-0.207,3.336-0.399,6.677-0.342,9.999
		c0.03,1.916-0.367,3.881-0.061,5.76c0.007,1.027-0.03,2.061-0.038,3.09c1.16-6.311,1.794-12.664,2.984-18.975
		c1.476,0,2.946,0,4.423,0c-0.634,2.211-0.76,4.471-1.33,6.687c-0.889,5.151-1.821,10.303-2.825,15.45
		c-0.242,1.309-0.437,2.621-0.64,3.935c-2.191-0.005-4.385,0.015-6.569-0.02C3.086,88.97,3.015,80.278,2.806,71.612z"/>
	<path fill="#E0E0E0" d="M15.504,71.607c1.438,0,2.874,0,4.312,0c-0.768,8.69-1.534,17.381-2.302,26.071c-1.437,0-2.873,0-4.311,0
		C13.97,88.988,14.737,80.298,15.504,71.607z"/>
	<path fill="#E0E0E0" d="M34.276,71.607c2.522,0,5.046,0,7.569,0c-0.099,1.125-0.198,2.25-0.298,3.37
		c-1.141,0.005-2.28,0.015-3.423,0.049c-0.206,2.548-0.431,5.099-0.676,7.646c1.055,0.029,2.116,0.039,3.178,0.049
		c-0.1,1.12-0.199,2.24-0.298,3.36c-1.063,0.01-2.125,0.019-3.185,0.048c-0.22,2.714-0.465,5.427-0.719,8.141
		c1.138,0.023,2.277,0.028,3.417,0.033c-0.099,1.125-0.199,2.25-0.298,3.375c-2.523,0-5.047,0-7.569,0
		C32.748,88.988,33.514,80.298,34.276,71.607z"/>
	<path fill="#E0E0E0" d="M61.869,72.096c0.877-0.666,1.998-0.618,3.004-0.706c1.88-0.004,4.022-0.207,5.419,1.126
		c0.815,2.467,0.049,5.189-0.048,7.777c-1.429,0.02-2.862,0.029-4.278-0.092c0.168-1.791,0.419-3.587,0.426-5.378
		c-1.083-0.31-1.617,0.063-1.604,1.125c-0.505,6.117-1.183,12.243-1.557,18.355l0.653,0.271l0.794-0.168
		c0.259-1.879,0.366-3.767,0.761-5.635c-1.639-0.357-0.423-2.438-0.585-3.641c1.69-0.005,3.376-0.005,5.066-0.005
		c-0.321,3.312-0.517,6.624-0.921,9.931c-0.071,1.135-0.849,2.328-2.041,2.598c-2.083,0.367-4.21,0.357-6.225,0.005
		c-1.676-0.386-2.011-2.336-1.833-3.848c0.57-6.465,1.155-12.924,1.711-19.384C60.979,73.636,61.066,72.631,61.869,72.096z"/>
	<path fill="#E0E0E0" d="M84.931,71.607c1.642,0,3.278,0,4.919,0c0.411,4.239,0.313,8.594,1.137,12.736
		c0.98-4.21,2.226-8.391,3.039-12.63c1.733-0.164,3.458-0.106,5.182-0.102c-0.767,8.686-1.534,17.376-2.301,26.066
		c-1.315,0-2.626,0-3.94,0c0.366-5.199,1.119-10.419,1.217-15.608c-0.566,2.442-1.114,4.891-1.718,7.323
		c-0.232,1.135-0.443,2.27-0.781,3.385c-0.311,1.642-0.697,3.269-1.104,4.9c-0.453,0-1.35,0-1.803,0.005
		c-0.019-1.009-0.021-2.014-0.016-3.022l-0.171-0.271c-0.068-3.973-0.397-7.917-0.5-11.886c-0.825,5.044-1.02,10.114-1.539,15.169
		c-1.41-0.02-2.873,0.159-4.21-0.251c0.598-1.145,0.588-2.414,0.479-3.606c0.432-2.076,0.615-4.2,0.564-6.276
		C84.183,82.243,84.374,76.918,84.931,71.607z"/>
	<path fill="#E0E0E0" d="M101.229,71.607c2.571,0,5.148,0,7.72,0c-0.099,1.125-0.198,2.25-0.299,3.38c-1.139,0-2.274,0-3.414,0.005
		c-0.218,2.573-0.449,5.142-0.681,7.715c1.012,0.005,2.025,0.005,3.039,0.005c-0.1,1.125-0.199,2.255-0.299,3.38
		c-1.013,0-2.026,0-3.04,0.004c-0.236,2.733-0.477,5.466-0.724,8.198c1.14,0.005,2.274,0.005,3.414,0.005
		c-0.1,1.125-0.198,2.255-0.298,3.38c-2.571,0-5.148,0-7.72,0C99.694,88.988,100.461,80.298,101.229,71.607z"/>
	<path fill="#E0E0E0" d="M127.953,71.607c1.467,0,2.938,0,4.409-0.004c0.582,4.711,1.041,9.452,1.523,14.184
		c0.811-4.712,0.928-9.452,1.438-14.18c1.311,0,2.625,0,3.939,0c-0.771,8.69-1.537,17.376-2.3,26.066
		c-1.592-0.015-3.211,0.126-4.753-0.179c-0.134-4.553-0.9-9.009-1.275-13.527c-0.797,4.557-0.895,9.144-1.395,13.711
		c-1.296,0-2.592,0-3.887,0C126.419,88.988,127.187,80.298,127.953,71.607z"/>
	<path fill="#E0E0E0" d="M171.366,71.607c1.437,0,2.874,0,4.311,0c-0.767,8.69-1.534,17.381-2.301,26.071c-1.437,0-2.874,0-4.311,0
		C169.833,88.988,170.6,80.298,171.366,71.607z"/>
	<path fill="#E0E0E0" d="M177.339,74.577c0.087-1.197,0.733-2.568,2.031-2.931c1.948-0.382,3.937-0.338,5.843-0.077
		c0.86,0.135,1.569,0.71,1.896,1.486c0.442,2.361,0.056,4.824-0.148,7.242c-1.416,0-2.835,0-4.253,0
		c0.15-1.868,0.424-3.742,0.377-5.6c-0.358,0.091-1.077,0.279-1.436,0.376c-0.688,6.407-1.251,12.837-1.7,19.254
		c0.345,0.063,1.039,0.193,1.39,0.256c0.388-2.004,0.429-4.018,0.66-6.025c-0.218-0.024-0.646-0.072-0.86-0.097
		c0.099-1.11,0.201-2.22,0.301-3.336c1.739,0,3.479,0,5.222,0c-0.576,3.877-0.149,7.879-1.564,11.66
		c-1.476,1.298-3.439,1.101-5.175,1.12c-1.255-0.088-2.748,0.053-3.637-0.908c-0.852-0.781-0.763-2.062-0.671-3.168
		C176.205,87.414,176.729,80.993,177.339,74.577z"/>
	<path fill="#E0E0E0" d="M189.695,71.612c1.492,0.029,3.039-0.178,4.453,0.251c-0.097,0.271-0.296,0.816-0.397,1.086
		c-0.757,8.241-1.46,16.483-2.192,24.729c-1.389,0-2.776,0-4.165,0C188.166,88.988,188.932,80.303,189.695,71.612z"/>
	<path fill="#E0E0E0" d="M195.544,71.607c3.078,0,6.152,0,9.231,0c-0.099,1.125-0.199,2.25-0.299,3.38c-0.814,0-1.626,0-2.436,0
		c-0.668,7.565-1.335,15.126-2.003,22.691c-1.456,0-2.907,0-4.358,0c0.671-7.551,1.317-15.102,2.009-22.657
		c-0.815-0.021-1.634-0.034-2.446-0.049C195.342,73.853,195.446,72.728,195.544,71.607z"/>
	<path fill="#E0E0E0" d="M218.062,71.607c1.438,0,2.87,0,4.312,0c-0.673,7.565-1.335,15.127-2.008,22.687
		c1.047,0.005,2.094,0.005,3.151,0.005c-0.104,1.125-0.204,2.255-0.298,3.38c-2.489,0-4.973,0-7.459,0
		C216.527,88.988,217.295,80.298,218.062,71.607z"/>
	<path fill="#E0E0E0" d="M232.176,73.548c0.603-2.021,2.939-2.229,4.639-2.172c1.724,0.072,4.212-0.251,4.806,1.738
		c0.353,2.308-0.271,4.717-0.326,7.068c-1.349-0.02-2.692-0.02-4.037-0.01c0.032-1.753,0.648-3.65,0.269-5.315
		c-0.286-0.054-0.862-0.159-1.149-0.213c-0.394,1.921-0.566,3.872-0.586,5.798c0.621,1.628,2.268,2.453,3.35,3.723
		c0.93,0.889,1.381,2.125,1.735,3.351c-0.222,2.279-0.363,4.563-0.619,6.842c-0.162,1.347-0.809,3.046-2.382,3.326
		c-2.074,0.31-4.228,0.381-6.188-0.14c-1.124-0.416-1.203-1.715-1.422-2.732c0.189-2.145,0.374-4.288,0.568-6.427
		c1.394,0,2.786,0,4.184-0.005c-0.122,2.052-0.514,4.123-0.427,6.165c0.349-0.043,1.038-0.125,1.384-0.168
		c0.297-1.995,0.372-3.993,0.567-5.987c-1.329-2.651-4.537-3.954-5.135-7.053C231.532,78.748,231.652,76.126,232.176,73.548z"/>
	<path fill="#E0E0E0" d="M243.452,71.607c3.078,0,6.157-0.004,9.234,0.005c-0.103,1.12-0.202,2.24-0.297,3.365
		c-0.814,0.01-1.633,0.02-2.447,0.029c-0.652,7.556-1.334,15.111-1.991,22.667c-1.456,0.005-2.912,0.005-4.364,0.005
		c0.672-7.561,1.33-15.126,2.007-22.687c-0.813-0.005-1.631-0.005-2.439-0.01C243.254,73.857,243.354,72.732,243.452,71.607z"/>
	<path fill="#E0E0E0" d="M277.476,71.607c1.403-0.014,2.816-0.024,4.212,0.102c-0.098,3.92,0.089,7.821,0.327,11.708
		c1.01-3.882,1.741-7.817,2.442-11.736c1.4-0.082,2.793-0.082,4.191-0.077c-1.483,5.112-2.795,10.264-4.232,15.386
		c-1.176,3.5-1.018,7.121-1.444,10.685c-1.462,0.005-2.924,0.005-4.383,0c0.175-3.365,0.954-6.788,0.458-10.1
		C278.491,82.259,278.058,76.918,277.476,71.607z"/>
	<path fill="#E0E0E0" d="M289.12,71.607c3.078,0,6.157,0,9.235,0c-0.104,1.125-0.205,2.25-0.298,3.38c-0.819,0-1.628,0-2.441,0.005
		c-0.662,7.561-1.334,15.121-1.996,22.687c-1.457,0-2.914,0-4.364-0.005c0.676-7.556,1.322-15.111,2.01-22.667
		c-0.816-0.01-1.635-0.02-2.443-0.029C288.922,73.857,289.021,72.732,289.12,71.607z"/>
	<path fill="#E0E0E0" d="M299.89,71.607c2.571,0,5.144,0,7.72,0c-0.104,1.125-0.203,2.25-0.299,3.38c-1.144,0-2.279,0-3.415,0.005
		c-0.222,2.573-0.447,5.142-0.682,7.715c1.015,0.005,2.027,0.005,3.044,0.01c-0.103,1.125-0.203,2.245-0.297,3.37
		c-1.019,0.005-2.03,0.005-3.045,0.009c-0.235,2.733-0.477,5.466-0.724,8.198c1.136,0.005,2.27,0.005,3.414,0.005
		c-0.104,1.125-0.204,2.255-0.297,3.38c-2.577,0-5.149,0-7.722,0C298.355,88.988,299.123,80.298,299.89,71.607z"/>
	<path fill="#E0E0E0" d="M309.206,71.607c1.438,0,2.875,0,4.312,0c-0.668,7.562-1.331,15.127-2.008,22.687
		c1.097,0.005,2.187,0.005,3.288,0.005c-0.1,1.13-0.204,2.255-0.299,3.38c-2.532,0-5.061,0-7.593,0
		C307.672,88.988,308.439,80.298,309.206,71.607z"/>
	<path fill="#E0E0E0" d="M318.281,71.607c1.389,0,2.775,0,4.165,0c-0.183,3.057-0.732,6.132-0.663,9.174
		c-0.746,4.465-0.832,8.97-1.35,13.45c1.096,0.059,2.2,0.072,3.31,0.082c-0.104,1.12-0.202,2.24-0.296,3.36
		c-2.489,0.005-4.978,0.005-7.463,0.005C316.751,88.988,317.519,80.298,318.281,71.607z"/>
	<path fill="#E0E0E0" d="M327.228,71.607c1.438,0,2.875,0,4.312,0c-0.767,8.69-1.533,17.381-2.302,26.071c-1.436,0-2.874,0-4.31,0
		C325.694,88.988,326.461,80.298,327.228,71.607z"/>
	<path fill="#E0E0E0" d="M333.56,71.612c1.535-0.014,3.079-0.058,4.598,0.121c0.23,4.726,1.01,9.361,1.319,14.078
		c0.821-4.722,0.943-9.473,1.453-14.204c1.306,0,2.61,0,3.921,0c-0.571,7.401-1.489,14.822-1.829,22.209
		c-0.308,1.279-0.377,2.573-0.467,3.862c-1.516,0-3.029,0-4.54,0c-0.025-0.256-0.074-0.768-0.101-1.019
		c-0.504-4.229-0.858-8.483-1.437-12.692c-0.699,4.562-0.864,9.144-1.342,13.711c-1.294,0-2.586,0-3.876,0
		C332.026,88.988,332.794,80.298,333.56,71.612z"/>
	<path fill="#E0E0E0" d="M348.51,71.763c1.87-0.556,3.821-0.416,5.688-0.262c1.35,0.044,2.54,1.13,2.496,2.507
		c0.025,2.09-0.283,4.194-0.438,6.29c-1.368,0-2.731,0-4.095-0.005c0.071-1.814,0.538-3.679,0.297-5.46
		c-0.814-0.436-1.626,0.14-1.643,1.047c-0.533,5.832-1.049,11.665-1.544,17.502c-0.178,1.019,0.681,1.564,1.603,0.932
		c0.29-1.911,0.349-3.828,0.57-5.74l-0.868-0.102c0.103-1.115,0.202-2.229,0.299-3.346c1.712,0,3.416,0,5.126,0
		c-0.175,3.466-0.318,6.972-1.071,10.419c-0.137,1.052-1.029,1.955-2.074,2.153c-1.967,0.304-3.951,0.284-5.86,0.01
		c-1.398-0.257-2.186-1.681-1.984-3.061c0.533-6.562,1.143-13.123,1.721-19.68C346.831,73.785,347.182,72.24,348.51,71.763z"/>
	<path fill="#E0E0E0" d="M31.771,75.142c0.185-1.482-0.479-3.119-2.07-3.355c-2.566-0.396-5.249-0.077-7.865-0.179
		c-0.767,8.69-1.534,17.381-2.301,26.071c2.643-0.092,5.277,0.188,7.922-0.14c1.508-0.193,2.534-1.613,2.581-3.032
		C30.695,88.052,31.227,81.597,31.771,75.142z M25.729,94.159c-0.527,0.067-1.059,0.131-1.59,0.188
		c0.571-6.47,1.142-12.939,1.713-19.408c0.521,0.062,1.046,0.125,1.565,0.197C26.878,81.476,26.332,87.82,25.729,94.159z"/>
	<path fill="#E0E0E0" d="M53.156,75.957c0.065-1.178,0.305-2.52-0.458-3.471c-0.857-1.158-2.511-1.023-3.862-1.11
		c-1.726,0.02-3.663-0.16-5.135,1.11c-0.349,0.975-0.737,1.955-0.779,2.979c-0.53,6.296-1.126,12.597-1.647,18.893
		c-0.119,1.352,0.365,2.93,1.785,3.287c2.037,0.367,4.204,0.383,6.307,0.005c1.515-0.381,2.078-2.071,2.16-3.394
		C52.095,88.153,52.598,82.056,53.156,75.957z M45.656,94.55c0.313-6.194,1.055-12.402,1.54-18.606
		c-0.085-0.917,0.514-1.409,1.429-1.241c0.351,0.661,0.104,1.473,0.093,2.207c-0.513,5.479-0.963,10.959-1.466,16.438
		C47.43,94.377,46.509,94.709,45.656,94.55z"/>
	<path fill="#E0E0E0" d="M151.396,75.479c0.17-1.593-0.445-3.451-2.195-3.712c-2.525-0.358-5.156-0.073-7.721-0.16
		c-0.767,8.69-1.534,17.381-2.302,26.071c2.704-0.111,5.409,0.251,8.114-0.207c1.719-0.324,2.368-2.222,2.493-3.693
		C150.328,87.68,150.877,81.578,151.396,75.479z M145.4,94.12c-0.594,0.059-1.184,0.111-1.777,0.16
		c0.587-6.426,1.154-12.853,1.702-19.279c0.584,0.055,1.169,0.112,1.752,0.18C146.505,81.495,145.958,87.806,145.4,94.12z"/>
	<path fill="#E0E0E0" d="M169.108,75.499c0.22-1.56-0.282-3.428-2.017-3.698c-2.573-0.421-5.276-0.092-7.902-0.193
		c-0.768,8.69-1.534,17.381-2.302,26.071c2.639-0.087,5.269,0.184,7.908-0.135c1.521-0.188,2.549-1.623,2.603-3.052
		C168.049,88.163,168.535,81.829,169.108,75.499z M163.084,94.159c-0.533,0.067-1.064,0.131-1.59,0.184
		c0.57-6.47,1.142-12.938,1.712-19.408c0.521,0.063,1.046,0.135,1.569,0.212C164.226,81.481,163.687,87.82,163.084,94.159z"/>
	<path fill="#E0E0E0" d="M264.012,74.987c0.146-1.396-0.383-3.018-1.858-3.355c-2.038-0.356-4.185-0.367-6.278,0.005
		c-1.307,0.348-1.978,1.719-2.064,2.921c-0.61,6.417-1.133,12.838-1.724,19.254c-0.094,1.115-0.188,2.409,0.678,3.196
		c0.891,0.951,2.378,0.811,3.627,0.898c1.73-0.025,3.7,0.183,5.164-1.125c0.384-0.972,0.754-1.961,0.811-2.989
		C262.904,87.526,263.496,81.254,264.012,74.987z M257.822,94.55c-0.348-0.087-1.043-0.256-1.391-0.342
		c0.416-6.44,1.074-12.896,1.666-19.342c0.364-0.033,1.092-0.106,1.46-0.145C259.181,81.321,258.565,87.95,257.822,94.55z"/>
	<path fill="#E0E0E0" d="M274.989,88.501c0.078-1.328-0.83-2.463-2.153-2.637c3.262-0.801,2.777-4.591,3.078-7.02
		c0.002-2.259,1.277-5.581-1.174-6.826c-2.652-0.854-5.661-0.213-8.459-0.411c-0.767,8.69-1.534,17.381-2.302,26.071
		c1.435,0,2.87,0,4.313,0c0.3-3.398,0.594-6.793,0.899-10.191c0.52,0.067,1.045,0.135,1.569,0.212
		c-0.271,3.327-0.584,6.652-0.871,9.979c1.455,0,2.907,0,4.363-0.005C274.469,94.618,274.891,91.557,274.989,88.501z
		 M271.063,83.996c-0.528,0.078-1.061,0.15-1.582,0.217c0.267-3.09,0.539-6.179,0.817-9.27c0.517,0.054,1.037,0.116,1.562,0.184
		C271.628,78.082,271.386,81.042,271.063,83.996z"/>
	<path fill="#E0E0E0" d="M81.244,84.238c0.042-4.22-0.001-8.426-0.059-12.631c-2.222,0.005-4.44-0.02-6.665,0.024
		c-1.508,8.69-3.112,17.381-4.852,26.047c1.417,0,2.84,0,4.257,0c0.326-2.26,0.513-4.539,1.09-6.773
		c0.803,0.015,1.604,0.033,2.407,0.053c-0.102,2.245-0.241,4.495-0.072,6.721c1.339,0,2.684,0,4.027,0
		C81.315,93.198,81.371,88.709,81.244,84.238z M75.448,87.497c0.827-3.747,1.061-7.542,2.128-11.26
		c-0.084,3.771-0.07,7.537-0.204,11.308C76.731,87.53,76.089,87.516,75.448,87.497z"/>
	<path fill="#E0E0E0" d="M124.404,91.958c0.031-5.156-0.001-10.309-0.098-15.449c-0.013-1.623,0.039-3.255,0.075-4.882
		c-2.219-0.033-4.44-0.015-6.662-0.02c-0.751,4.051-1.58,8.092-2.24,12.147c-0.921,4.635-1.798,9.279-2.607,13.924
		c1.359,0,2.718,0,4.077,0c0.329-2.25,0.854-4.485,1.066-6.74c0.8-0.01,1.604-0.019,2.408-0.023
		c0.056,2.245,0.037,4.499-0.069,6.759c1.436-0.054,2.902,0.217,4.328-0.256C124.104,95.689,124.714,93.748,124.404,91.958z
		 M118.647,87.588c0.506-3.79,1.171-7.579,1.85-11.354c0.159,2.944,0.165,5.914-0.005,8.893c-0.08,0.738,0.037,1.453,0.234,2.139
		C120.046,87.481,119.344,87.54,118.647,87.588z"/>
	<path fill="#E0E0E0" d="M214.513,91.958c0.03-5.156-0.002-10.303-0.098-15.445c-0.012-1.627,0.034-3.259,0.075-4.886
		c-2.219-0.033-4.446-0.015-6.662-0.02c-0.752,4.051-1.58,8.087-2.24,12.147c-0.921,4.635-1.799,9.279-2.608,13.924
		c1.36,0,2.714,0,4.077,0c0.326-2.25,0.854-4.48,1.068-6.74c0.799-0.01,1.603-0.019,2.406-0.023
		c0.055,2.245,0.037,4.499-0.069,6.759c1.384,0.005,2.766,0.067,4.162-0.082C214.458,95.729,214.698,93.821,214.513,91.958z
		 M208.757,87.588c0.496-3.804,1.187-7.594,1.843-11.389c0.162,2.79,0.178,5.601,0.022,8.415c-0.03,0.874-0.155,1.796,0.264,2.568
		C210.203,87.516,209.471,87.549,208.757,87.588z"/>
</g>
</svg>
