<?xml version="1.0" encoding="utf-8"?>
<!-- Generator: Adobe Illustrator 16.0.0, SVG Export Plug-In . SVG Version: 6.00 Build 0)  -->
<!DOCTYPE svg PUBLIC "-//W3C//DTD SVG 1.1//EN" "http://www.w3.org/Graphics/SVG/1.1/DTD/svg11.dtd">
<svg version="1.1" id="Layer_1" xmlns="http://www.w3.org/2000/svg" xmlns:xlink="http://www.w3.org/1999/xlink" x="0px" y="0px"
	 width="316.667px" height="60.667px" viewBox="0 0 316.667 60.667" enable-background="new 0 0 316.667 60.667"
	 xml:space="preserve">
<circle fill="#EE3A2E" cx="240.901" cy="33.483" r="26.667"/>
<circle display="none" fill="#EE3A2E" cx="96.296" cy="16.99" r="27"/>
<g display="none">
	<path display="inline" fill="#FFFFFF" d="M87.507,22.849v7.324h-5.859V12.595c0-5.859,2.93-8.789,8.789-8.789h11.719
		c5.859,0,8.789,2.93,8.789,8.789v17.578h-5.859v-7.324H87.507z M105.085,16.99v-4.395c0-1.953-0.977-2.93-2.93-2.93H90.437
		c-1.953,0-2.93,0.977-2.93,2.93v4.395H105.085z"/>
</g>
<g display="none">
	<path display="inline" d="M15.085,30.173V3.806h20.508c5.859,0,8.789,2.695,8.789,8.086c0,5.352-2.93,8.027-8.789,8.027H20.945
		v10.254H15.085z M38.523,14.06V9.666H20.945v4.395L38.523,14.06L38.523,14.06z"/>
	<path display="inline" d="M54.971,3.806v17.578c0,1.953,0.977,2.93,2.93,2.93h20.508v5.859H57.901c-5.859,0-8.789-2.93-8.789-8.789
		V3.806H54.971z"/>
	<path display="inline" d="M128.884,19.919h-2.93c-5.859,0-8.789-2.93-8.789-8.789V3.806h5.859v7.324c0,1.953,0.977,2.93,2.93,2.93
		h11.719c1.953,0,2.93-0.977,2.93-2.93V3.806h5.859v7.324c0,5.859-2.93,8.789-8.789,8.789h-2.93v10.254h-5.859V19.919z"/>
	<path display="inline" d="M157.051,3.806v17.578c0,1.953,0.977,2.93,2.93,2.93h20.508v5.859h-20.508
		c-5.859,0-8.789-2.93-8.789-8.789V3.806H157.051z"/>
	<path display="inline" d="M185.218,30.173V3.806h5.859v26.367H185.218z"/>
	<path display="inline" d="M195.807,30.173V3.806h20.508c5.858,0,8.789,2.93,8.789,8.789v17.578h-5.858V12.595
		c0-1.953-0.978-2.93-2.931-2.93h-14.647v20.508H195.807z"/>
	<path display="inline" d="M259.13,30.173h-20.508c-5.858,0-8.789-2.93-8.789-8.789V3.806h29.297v5.859h-23.438v4.395h23.438v5.859
		h-23.438v1.465c0,1.953,0.977,2.93,2.93,2.93h20.508V30.173z"/>
	<path display="inline" d="M263.861,24.314h23.438v-4.395H272.65c-5.859,0-8.79-2.646-8.79-7.939c0-5.449,2.931-8.174,8.79-8.174
		h20.508v5.859H269.72v4.395h14.648c5.859,0,8.789,2.686,8.789,8.057c0,5.372-2.93,8.057-8.789,8.057H263.86L263.861,24.314
		L263.861,24.314z"/>
</g>
<g>
	<path d="M0.667,40.807h23.438v-4.396H9.456c-5.859,0-8.789-2.646-8.789-7.938c0-5.449,2.93-8.174,8.789-8.174h20.508v5.859H6.526
		v4.395h14.648c5.859,0,8.789,2.687,8.789,8.057c0,5.372-2.93,8.058-8.789,8.058H0.667V40.807z"/>
	<path d="M32.894,20.299H62.19v5.859H50.472v20.507h-5.859V26.158H32.894V20.299z"/>
	<path d="M73.909,46.666c-5.859,0-8.789-2.93-8.789-8.789v-8.789c0-5.859,2.93-8.789,8.789-8.789h11.719
		c5.859,0,8.789,2.93,8.789,8.789v8.789c0,5.859-2.442,8.789-7.324,8.789H73.909z M73.909,40.807h11.719
		c1.953,0,2.93-0.978,2.93-2.931v-8.789c0-1.953-0.977-2.93-2.93-2.93H73.909c-1.953,0-2.93,0.977-2.93,2.93v8.789
		C70.979,39.83,71.956,40.807,73.909,40.807z"/>
	<path d="M103.206,36.412v10.254h-5.859V20.299h20.508c5.859,0,8.789,2.676,8.789,8.027c0,2.539-0.42,4.405-1.26,5.595
		c0.839,1.388,1.26,3.193,1.26,5.42v7.324h-5.859v-7.324c0-1.952-0.977-2.93-2.93-2.93H103.206z M103.206,30.553h17.578v-4.395
		h-17.578V30.553z"/>
	<path d="M141.292,36.412h-2.93c-5.859,0-8.789-2.93-8.789-8.789v-7.324h5.859v7.324c0,1.953,0.977,2.93,2.93,2.93h11.719
		c1.953,0,2.93-0.977,2.93-2.93v-7.324h5.86v7.324c0,5.859-2.931,8.789-8.79,8.789h-2.93v10.254h-5.859V36.412L141.292,36.412z"/>
	<path d="M191.097,46.666h-20.508c-5.859,0-8.789-2.93-8.789-8.789v-8.789c0-5.859,2.93-8.789,8.789-8.789h20.508v5.859h-20.508
		c-1.953,0-2.93,0.977-2.93,2.93v8.789c0,1.953,0.977,2.931,2.93,2.931h20.508V46.666z"/>
	<path d="M199.886,36.412v10.254h-5.859V20.299h20.508c5.859,0,8.789,2.676,8.789,8.027c0,2.539-0.42,4.405-1.26,5.595
		c0.839,1.388,1.26,3.193,1.26,5.42v7.324h-5.859v-7.324c0-1.952-0.977-2.93-2.93-2.93H199.886z M199.886,30.553h17.578v-4.395
		h-17.578V30.553z"/>
	<path d="M258.479,46.666V20.299h26.367v5.859h-20.507v4.395h14.647v5.858h-14.647v10.254H258.479z"/>
	<path d="M287.776,20.299h29.298v5.859h-11.72v20.507h-5.858V26.158h-11.72V20.299z"/>
</g>
<g enable-background="new    ">
	<path d="M0.667,12.565h13.212v-2.478H5.622c-3.303,0-4.955-1.492-4.955-4.476c0-3.072,1.651-4.608,4.955-4.608h11.561v3.304H3.97
		v2.477h8.258c3.303,0,4.955,1.515,4.955,4.542c0,3.028-1.651,4.542-4.955,4.542H0.667V12.565z"/>
	<path d="M22.137,1.004v9.909c0,1.102,0.55,1.652,1.651,1.652h6.606c1.101,0,1.651-0.551,1.651-1.652V1.004h3.303v9.909
		c0,3.304-1.651,4.955-4.955,4.955h-6.606c-3.303,0-4.955-1.651-4.955-4.955V1.004H22.137z"/>
	<path d="M37.001,15.868V1.004h11.561c3.304,0,4.954,1.52,4.954,4.559c0,3.017-1.65,4.525-4.954,4.525h-8.258v5.78H37.001z
		 M50.214,6.784V4.308h-9.909v2.477H50.214z"/>
	<path d="M71.685,15.868H60.124c-3.304,0-4.955-1.651-4.955-4.955V1.004h16.516v3.304H58.472v2.477h13.213v3.304H58.472v0.825
		c0,1.102,0.551,1.652,1.652,1.652h11.561V15.868z"/>
	<path d="M76.639,10.088v5.78h-3.303V1.004h11.561c3.304,0,4.955,1.509,4.955,4.525c0,1.432-0.237,2.483-0.71,3.154
		c0.473,0.782,0.71,1.801,0.71,3.056v4.129h-3.303v-4.129c0-1.101-0.551-1.651-1.652-1.651H76.639z M76.639,6.784h9.91V4.308h-9.91
		V6.784z"/>
</g>
<path fill="#FFFFFF" d="M232.112,39.341v7.324h-5.858V29.088c0-5.859,2.93-8.789,8.789-8.789h11.719c5.859,0,8.789,2.93,8.789,8.789
	v17.578h-5.859v-7.324H232.112z M249.69,33.482v-4.395c0-1.953-0.978-2.93-2.931-2.93h-11.719c-1.953,0-2.93,0.977-2.93,2.93v4.395
	H249.69z"/>
</svg>
