<?xml version="1.0" encoding="utf-8"?>
<!-- Generator: Adobe Illustrator 16.0.0, SVG Export Plug-In . SVG Version: 6.00 Build 0)  -->
<!DOCTYPE svg PUBLIC "-//W3C//DTD SVG 1.1//EN" "http://www.w3.org/Graphics/SVG/1.1/DTD/svg11.dtd">
<svg version="1.1" id="Layer_1" xmlns="http://www.w3.org/2000/svg" xmlns:xlink="http://www.w3.org/1999/xlink" x="0px" y="0px"
	 width="193.333px" height="61.333px" viewBox="0 0 193.333 61.333" enable-background="new 0 0 193.333 61.333"
	 xml:space="preserve">
<g>
	<path fill="#FFFFFF" d="M18.247,32.425c1.632,0.816,3.264,1.728,4.512,2.88c1.2,1.152,1.2,3.216,1.2,3.216v5.76
		c0,4.225-3.408,7.681-7.633,7.681c-4.272,0-7.681-3.456-7.681-7.681V37.85h6.097v6.769h3.12v-4.704c0,0,0.048-0.864-0.72-1.536
		c-0.72-0.672-1.68-1.296-3.696-2.304c-2.064-0.96-4.801-2.448-4.801-6.097v-5.185c0-4.224,3.409-7.681,7.681-7.681
		c4.225,0,7.633,3.457,7.633,7.681v6.385h-6.097v-6.721h-3.12v4.176C14.791,30.697,16.615,31.609,18.247,32.425z"/>
	<path fill="#FFFFFF" d="M40.663,23.977h-4.272v27.362h-6.433V23.977h-4.224v-6.433h14.929V23.977z"/>
	<path fill="#FFFFFF" d="M57.991,24.792v19.49c0,4.225-3.457,7.681-7.681,7.681c-4.225,0-7.681-3.456-7.681-7.681v-19.49
		c0-4.224,3.456-7.681,7.681-7.681C54.534,17.112,57.991,20.568,57.991,24.792z M51.894,24.457h-3.12v20.162h3.12V24.457z"/>
	<path fill="#FFFFFF" d="M68.358,17.448c7.44,0,7.057,6,7.057,6s0,5.905,0,7.777s-1.776,3.264-1.776,3.264
		c1.776,0.96,1.872,2.977,1.872,2.977v13.873h-6.096V37.754h-1.632v-6.673h1.632v-6.865H66.39v27.123h-6V17.448
		C60.389,17.448,65.958,17.448,68.358,17.448z"/>
	<path fill="#FFFFFF" d="M93.031,17.496v13.153c0,3.024-1.776,5.665-4.369,6.913v13.777h-6.433V37.658
		c-2.688-1.2-4.56-3.888-4.56-7.009V17.496h6.096v13.585h3.313V17.496H93.031z"/>
	<path fill="#FFFFFF" d="M104.454,37.802h6.096v6.48c0,4.272-3.408,7.681-7.681,7.681c-4.224,0-7.632-3.408-7.632-7.681v-19.49
		c0-4.224,3.408-7.681,7.632-7.681c4.177,0,7.537,3.313,7.681,7.393v6.625h-6.096v-6.672h-3.121v20.21h3.121V37.802z"/>
	<path fill="#FFFFFF" d="M120.87,17.448c7.44,0,7.057,6,7.057,6s0,5.905,0,7.777s-1.776,3.264-1.776,3.264
		c1.776,0.96,1.872,2.977,1.872,2.977v13.873h-6.096V37.754h-1.632v-6.673h1.632v-6.865h-3.024v27.123h-6V17.448
		C112.901,17.448,118.469,17.448,120.87,17.448z"/>
	<path fill="#FFFFFF" d="M145.734,51.291h-6.193v-6.913h-3.168v6.913h-6v-26.69c0-4.225,3.408-7.681,7.681-7.681
		c4.224,0,7.681,3.456,7.681,7.681V51.291z M139.59,24.168h-3.264v13.537h3.264V24.168z"/>
	<path fill="#FFFFFF" d="M154.229,31.177h4.608v6.192h-4.608v13.969h-6.096v-26.69c0-4.224,3.408-7.681,7.681-7.681
		c4.128,0,7.537,3.313,7.681,7.393v5.473h-6.145v-5.521h-3.121V31.177z"/>
	<path fill="#FFFFFF" d="M179.814,23.977h-4.272v27.362h-6.433V23.977h-4.224v-6.433h14.929V23.977z"/>
</g>
<g>
	<path fill="#ED1C24" d="M10.629,11.656h9.375l0.471-1.757h-5.859c-2.344,0-3.232-1.059-2.665-3.176
		c0.584-2.18,2.048-3.27,4.392-3.27h8.203l-0.628,2.344h-9.375l-0.471,1.757h5.859c2.344,0,3.228,1.074,2.652,3.223
		C22.008,12.925,20.548,14,18.204,14h-8.203L10.629,11.656z"/>
	<path fill="#ED1C24" d="M28.062,3.453l-1.884,7.031c-0.209,0.781,0.076,1.172,0.857,1.172h4.688c0.781,0,1.277-0.391,1.486-1.172
		l1.884-7.031h2.344l-1.884,7.031C34.924,12.828,33.438,14,31.095,14h-4.688c-2.344,0-3.202-1.171-2.573-3.516l1.884-7.031H28.062z"
		/>
	<path fill="#ED1C24" d="M35.782,14l2.826-10.547h8.203c2.344,0,3.227,1.078,2.649,3.235c-0.574,2.14-2.032,3.211-4.376,3.211
		h-5.859L38.126,14H35.782z M46.884,7.554l0.471-1.757h-7.031l-0.471,1.757H46.884z"/>
	<path fill="#ED1C24" d="M60.392,14h-8.203c-2.344,0-3.202-1.171-2.573-3.516l1.884-7.031h11.719L62.59,5.797h-9.375l-0.471,1.757
		h9.375l-0.628,2.344h-9.375l-0.157,0.585c-0.209,0.781,0.076,1.172,0.857,1.172h8.203L60.392,14z"/>
	<path fill="#ED1C24" d="M65.006,9.898L63.907,14h-2.344L64.39,3.453h8.203c2.344,0,3.229,1.071,2.655,3.211
		c-0.272,1.016-0.64,1.762-1.104,2.239c0.187,0.555,0.161,1.277-0.077,2.167L73.282,14h-2.344l0.785-2.93
		c0.209-0.781-0.077-1.171-0.858-1.171H65.006z M65.634,7.554h7.031l0.471-1.757h-7.031L65.634,7.554z"/>
</g>
</svg>
