<?xml version="1.0" encoding="utf-8"?>
<!-- Generator: Adobe Illustrator 16.0.0, SVG Export Plug-In . SVG Version: 6.00 Build 0)  -->
<!DOCTYPE svg PUBLIC "-//W3C//DTD SVG 1.1//EN" "http://www.w3.org/Graphics/SVG/1.1/DTD/svg11.dtd">
<svg version="1.1" id="Layer_1" xmlns="http://www.w3.org/2000/svg" xmlns:xlink="http://www.w3.org/1999/xlink" x="0px" y="0px"
	 width="75px" height="20.167px" viewBox="0 0 75 20.167" enable-background="new 0 0 75 20.167" xml:space="preserve">
<g>
	<path d="M5.688,12.074c0-1.907,0.089-3.654,0.089-5.561C5.277,4.41,4.797,2.593,4.19,0.525C4.85,0.4,5.474,0.383,6.169,0.365
		C6.543,1.345,6.722,2.2,6.971,3.252c0.231-0.659,0.393-1.568,0.802-2.745c0.41-0.036,1.676-0.143,1.943-0.018
		C9.038,2.308,8.646,3.822,8.219,5.658c0.071,2.031-0.071,4.669,0.018,6.434C7.791,12.199,6.329,12.146,5.688,12.074z"/>
	<path d="M9.842,6.246c-0.054-1.96,0.214-3.957,0.321-5.828c1.301-0.16,2.727,0.054,3.992,0.036c0.641,1.515,0.73,3.689,0.73,5.364
		c0,1.925-0.036,3.903-0.41,6.024c-1.301,0.446-2.727,0.285-4.081,0.214C9.948,10.577,9.896,8.135,9.842,6.246z M11.642,3.483
		c0.036,2.281-0.143,2.78,0.303,5.4l0.963-0.143c0.107-1.765,0.018-3.832-0.303-5.525C11.944,3.27,11.642,3.359,11.642,3.483z"/>
	<path d="M18.238,4.214c0.035-0.232,0.018-0.784,0.035-1.016l-0.57-0.018c-0.178,0.339-0.071,1.087-0.071,1.479
		c0.428,0.267,0.892,0.517,1.747,0.927c0.267,0.125,0.445,0.231,0.445,0.695c0.036,2.174,0.196,3.939-0.196,5.721
		c-0.908,0.196-2.94,0.374-3.653-0.285c-0.268-1.141-0.268-2.406-0.196-4.028c0.268-0.178,1.016-0.035,1.337-0.018
		c0.071,0.535,0.106,1.194,0.16,1.586c0.231,0.107,0.695,0.285,0.749-0.071V7.476c-0.82-0.659-1.604-0.909-2.229-1.568
		c-0.267-1.729-0.32-3.439-0.089-5.222c0.499-0.285,1.105-0.339,1.854-0.339c0.535,0,2.085,0.143,2.157,0.393
		c0.445,0.909,0.249,2.744,0.053,3.582C19.29,4.375,18.72,4.464,18.238,4.214z"/>
	<path d="M23.533,6.264L23.088,6.21c-0.089,2.495-0.125,3.564-0.071,5.97c-0.624-0.035-1.283,0.071-1.871-0.018
		c-0.072-3.957-0.019-8.234-0.268-11.798c0.499,0.107,1.64-0.036,1.889,0.107l0.054,2.067c0.303,0.036,0.553,0.018,0.802,0.018
		c0.071-0.392,0.054-0.927,0.125-2.263c0.73,0.036,1.229,0.036,2.014,0.178c0.09,3.85-0.106,7.664,0.054,11.513
		c-0.499,0.107-1.515,0.018-2.103,0.053C23.693,10.078,23.818,8.171,23.533,6.264z"/>
	<path d="M26.957,12.181h-0.035c0.231-4.152-0.304-7.948-0.071-11.798c0.642-0.071,1.461,0.106,2.228,0.071
		c0.054,3.867-0.018,8.02-0.018,11.655C28.348,12.181,27.207,12.056,26.957,12.181z"/>
	<path d="M32.287,3.288c-0.428,0.338-0.802,0.588-1.194,0.837L30.326,4.09l0.535-1.034l-0.944-0.143
		c0.106-1.051-0.09-1.8,0.035-2.353c0.035-0.125,1.925,0.018,2.246-0.089C32.341,1.202,32.358,2.29,32.287,3.288z"/>
	<path d="M35.692,4.214c0.035-0.232,0.018-0.784,0.035-1.016l-0.57-0.018c-0.178,0.339-0.071,1.087-0.071,1.479
		c0.428,0.267,0.892,0.517,1.747,0.927c0.268,0.125,0.445,0.231,0.445,0.695c0.035,2.174,0.196,3.939-0.196,5.721
		c-0.909,0.196-2.94,0.374-3.653-0.285c-0.268-1.141-0.268-2.406-0.196-4.028c0.268-0.178,1.017-0.035,1.337-0.018
		c0.071,0.535,0.107,1.194,0.16,1.586c0.232,0.107,0.695,0.285,0.749-0.071V7.476c-0.82-0.659-1.604-0.909-2.228-1.568
		c-0.268-1.729-0.321-3.439-0.09-5.222c0.499-0.285,1.105-0.339,1.854-0.339c0.535,0,2.086,0.143,2.156,0.393
		c0.446,0.909,0.25,2.744,0.054,3.582C36.743,4.375,36.173,4.464,35.692,4.214z"/>
	<path d="M42.2,12.056c-0.179-0.855-0.303-1.764-0.375-3.065c-0.16-3.047-0.303-5.614,0.196-8.448
		c0.944-0.285,2.852-0.143,3.761,0.018c0.214,1.658,0.285,3.012,0.178,4.83c-0.48,0.196-1.461,0.125-1.692-0.089
		c-0.019-0.588,0-1.604-0.285-2.299L43.43,3.145c-0.071,0.98-0.106,3.974,0.339,5.756l0.605-0.106c0-0.713-0.106-1.693-0.16-2.281
		c0.445,0,0.963-0.054,1.283,0.018c0.339,0,0.499,0.231,0.481,0.713c-0.019,0.873-0.054,3.689-0.356,4.794
		C44.464,12.163,43.323,12.056,42.2,12.056z"/>
	<path d="M49.455,6.264L49.01,6.21c-0.089,2.495-0.125,3.564-0.071,5.97c-0.624-0.035-1.283,0.071-1.871-0.018
		C46.995,8.207,47.049,3.929,46.8,0.365c0.499,0.107,1.64-0.036,1.889,0.107l0.054,2.067c0.303,0.036,0.553,0.018,0.802,0.018
		c0.071-0.392,0.054-0.927,0.125-2.263c0.73,0.036,1.229,0.036,2.014,0.178c0.09,3.85-0.106,7.664,0.054,11.513
		c-0.499,0.107-1.515,0.018-2.103,0.053C49.615,10.078,49.74,8.171,49.455,6.264z"/>
	<path d="M52.54,6.246c-0.053-1.96,0.215-3.957,0.321-5.828c1.301-0.16,2.727,0.054,3.992,0.036c0.642,1.515,0.73,3.689,0.73,5.364
		c0,1.925-0.035,3.903-0.409,6.024c-1.302,0.446-2.728,0.285-4.082,0.214C52.647,10.577,52.594,8.135,52.54,6.246z M54.341,3.483
		c0.035,2.281-0.143,2.78,0.303,5.4l0.963-0.143c0.106-1.765,0.018-3.832-0.304-5.525C54.644,3.27,54.341,3.359,54.341,3.483z"/>
	<path d="M58.548,12.181h-0.035c0.231-4.152-0.303-7.948-0.071-11.798c0.642-0.071,1.461,0.106,2.228,0.071
		c0.054,3.867-0.018,8.02-0.018,11.655C59.938,12.181,58.798,12.056,58.548,12.181z"/>
	<path d="M62.025,12.056c-0.179-0.855-0.304-1.764-0.374-3.065c-0.161-3.047-0.304-5.614,0.195-8.448
		c0.945-0.285,2.852-0.143,3.761,0.018c0.214,1.658,0.285,3.012,0.179,4.83c-0.481,0.196-1.462,0.125-1.693-0.089
		c-0.018-0.588,0-1.604-0.285-2.299l-0.553,0.143c-0.071,0.98-0.107,3.974,0.339,5.756l0.605-0.106c0-0.713-0.106-1.693-0.16-2.281
		c0.445,0,0.962-0.054,1.283,0.018c0.339,0,0.499,0.231,0.481,0.713c-0.018,0.873-0.054,3.689-0.356,4.794
		C64.288,12.163,63.147,12.056,62.025,12.056z"/>
	<path d="M70.76,0.543c-0.107,0.624,0.054,1.426-0.089,1.925c-0.66-0.054-1.337-0.054-1.996-0.036
		c-0.09,0.588-0.019,1.194,0.124,1.747c0.57-0.054,1.194-0.018,1.961,0.036c-0.019,0.855-0.179,1.497-0.321,2.334
		c0.036,0.018-1.033-0.053-1.586,0.054c-0.018,0.944-0.018,1.765,0.107,2.709c0.588,0.071,1.104,0.107,1.657,0.089
		c0,0.749-0.036,1.943-0.125,2.745c-0.873,0.106-2.709,0.053-3.582,0.071c-0.339-3.601-0.41-8.002-0.393-11.674
		C67.801,0.543,69.619,0.597,70.76,0.543z"/>
</g>
<g>
	<path fill="#231F20" d="M15.184,16.793l0.346-0.029c-0.051-0.418-0.108-0.771-0.166-1.289
		C15.256,16.051,15.234,16.389,15.184,16.793z"/>
	<path fill="#231F20" d="M57.256,16.584c-0.044,0.373,0,1.361,0.18,1.822l0.194-0.109c-0.036-0.539-0.043-1.225-0.144-1.764
		L57.256,16.584z"/>
	<path fill="#231F20" d="M59.43,15.489c0.028,0.691,0.043,0.49,0.05,0.965c0.151,0.021,0.202-0.027,0.324-0.086
		c0.008-0.217-0.014-0.518-0.094-0.957L59.43,15.489z"/>
	<path fill="#231F20" d="M41.047,16.793l0.346-0.029c-0.051-0.418-0.108-0.771-0.166-1.289
		C41.119,16.051,41.098,16.389,41.047,16.793z"/>
	<path fill="#231F20" d="M28.173,15.872c0.043,0.561,0.094,1.469,0.108,2.139l0.259,0.057c0.145-0.654,0.087-1.592-0.028-2.24
		C28.41,15.827,28.273,15.813,28.173,15.872z"/>
	<path fill="#231F20" d="M23.665,16.793l0.346-0.029c-0.05-0.418-0.107-0.771-0.165-1.289
		C23.737,16.051,23.716,16.389,23.665,16.793z"/>
	<path fill="#231F20" d="M38.779,15.489c0.028,0.477,0.043,0.893,0.05,1.369l0.296-0.086c0-0.447,0.015-0.922-0.065-1.361
		L38.779,15.489z"/>
	<path fill="#231F20" d="M5.226,15.872c0.043,0.561,0.094,1.469,0.108,2.139l0.259,0.057c0.145-0.654,0.087-1.592-0.028-2.24
		C5.463,15.827,5.326,15.813,5.226,15.872z"/>
	<path fill="#231F20" d="M0,13.46v6.667h75.167V13.46H0z M2.158,19.163c-0.122,0.129-0.555,0.051-0.82,0.029
		c-0.195-1.838-0.346-2.996-0.605-4.668c0.209-0.102,0.562-0.029,0.821-0.057c0.094,0.676,0.194,1.389,0.288,1.922
		c0.064-0.475,0.259-1.297,0.331-1.9c0.224,0,0.67-0.045,0.749,0.07C2.598,15.979,2.396,17.678,2.158,19.163z M4.074,19.213
		c-0.138,0.006-0.642,0.014-0.879-0.008c-0.015-0.705,0.015-1.6-0.029-2.406c-0.043-0.764-0.028-1.512-0.021-2.268
		c0.13-0.051,0.749-0.021,0.937-0.016c0.028,0.771-0.021,1.578,0,2.363C4.109,17.721,4.074,18.399,4.074,19.213z M6.263,18.5
		c-0.23,0.252-0.288,0.416-0.576,0.646c-0.237,0.188-0.922,0.094-1.123,0.016c0.05-1.549-0.022-3.039-0.115-4.604
		c0.417-0.1,0.936-0.021,1.238-0.035c0.145,0.059,0.663,0.381,0.698,0.611c0.029,1.262,0,1.975,0.058,3.004
		C6.442,18.254,6.378,18.37,6.263,18.5z M8.337,19.176c-0.188,0.08-1.275,0.059-1.52,0.037c-0.008-1.326-0.029-3.111-0.008-4.697
		c0.425-0.064,0.958-0.021,1.376-0.014c-0.021,0.354,0.021,0.721-0.015,1.08c-0.194-0.043-0.446-0.008-0.627-0.008
		c0.008,0.131,0.015,0.275,0.015,0.498c0.194-0.021,0.382,0,0.584-0.016c0.071,0.275,0.05,0.527,0.05,0.844
		c-0.144-0.008-0.28,0.014-0.439,0c-0.021,0.418,0,0.82,0.008,1.268c0.187-0.021,0.41,0.008,0.598-0.014
		C8.365,18.391,8.351,19.053,8.337,19.176z M10.381,16.778c-0.014,0.801-0.043,1.52-0.129,2.326c-0.39,0.145-0.9,0.145-1.383,0.064
		c-0.245-0.762-0.296-1.41-0.296-2.541c0-0.771,0.008-1.441,0.238-2.111c0.41-0.043,0.899-0.107,1.317-0.043
		C10.417,15.143,10.396,16.057,10.381,16.778z M13.881,19.227c-0.576,0.029-1.066-0.064-1.636,0.008
		c-0.122-0.541-0.187-1.715-0.18-2.348c0.007-0.764-0.028-1.6,0.166-2.299c0.576-0.129,1.188-0.043,1.721,0.059
		c0,0.555,0.029,1.115-0.05,1.664c-0.173,0.014-0.482,0.006-0.67,0.014c-0.021-0.158,0.015-0.447-0.021-0.635h-0.26
		c-0.064,0.23-0.101,1.037-0.107,1.254c-0.008,0.223,0.043,0.85,0.064,1.139c0.079,0.027,0.353,0.035,0.396-0.029l-0.022-0.576
		c0-0.051-0.158-0.043-0.273-0.051c-0.021-0.193-0.058-0.504-0.043-0.857c0.224,0.008,0.576,0.043,0.807,0.043
		c0.13,0,0.194,0.029,0.194,0.094C13.996,17.512,14.01,18.522,13.881,19.227z M15.544,19.219c-0.044-0.539-0.051-0.936-0.108-1.367
		h-0.237c-0.108,0.648-0.108,1-0.166,1.396c-0.259,0.008-0.634,0.021-0.835,0c0.165-1.57,0.259-3.133,0.496-4.703
		c0.368,0.008,0.778,0.008,1.167-0.043c0.245,1.463,0.389,2.945,0.685,4.717C16.285,19.27,15.781,19.249,15.544,19.219z
		 M18.546,19.219c-0.036-0.373-0.071-1.418-0.129-1.785c-0.094,0.691-0.138,1.434-0.188,1.793l-0.476-0.008
		c0,0-0.144-1.174-0.209-1.576c-0.043,0.525-0.043,1.295-0.101,1.563c-0.281,0-0.512,0.014-0.677-0.029
		c0.05-1.549,0.014-3.082-0.015-4.617c0.237-0.057,0.533-0.021,0.85-0.057c0.079,0.418,0.273,1.555,0.382,2.406
		c0.158-0.648,0.303-1.736,0.433-2.385l0.705,0.008l0.036-0.008c-0.043,1.498,0.043,3.191,0.079,4.674
		C19.015,19.198,18.712,19.192,18.546,19.219z M21.131,19.176c-0.188,0.08-1.274,0.059-1.52,0.037
		c-0.007-1.326-0.028-3.111-0.007-4.697c0.425-0.064,0.958-0.021,1.375-0.014c-0.021,0.354,0.021,0.721-0.014,1.08
		c-0.195-0.043-0.447-0.008-0.627-0.008c0.007,0.131,0.015,0.275,0.015,0.498c0.194-0.021,0.382,0,0.583-0.016
		c0.072,0.275,0.051,0.527,0.051,0.844c-0.145-0.008-0.281,0.014-0.439,0c-0.021,0.418,0,0.82,0.007,1.268
		c0.188-0.021,0.411,0.008,0.598-0.014C21.16,18.391,21.146,19.053,21.131,19.176z M24.025,19.219
		c-0.043-0.539-0.05-0.936-0.107-1.367H23.68c-0.107,0.648-0.107,1-0.165,1.396c-0.26,0.008-0.634,0.021-0.836,0
		c0.166-1.57,0.26-3.133,0.497-4.703c0.367,0.008,0.777,0.008,1.167-0.043c0.244,1.463,0.389,2.945,0.684,4.717
		C24.768,19.27,24.264,19.249,24.025,19.219z M26.337,19.235c-0.188-0.686-0.281-1.117-0.439-1.723
		c-0.015,0.426,0.028,1.262,0.028,1.68c-0.302,0.014-0.461-0.016-0.647-0.016c0.036-1.324-0.029-4.221-0.044-4.623
		c0.217,0,0.426-0.029,0.648-0.043c0.151,0.338,0.36,1.455,0.454,1.656c0.043-0.396-0.036-1.203-0.036-1.613
		c0.216-0.021,0.425-0.043,0.519-0.043c0.137,0,0.201,0.027,0.201,0.115c-0.079,1.547,0.044,3.184,0.015,4.609
		C26.813,19.176,26.553,19.235,26.337,19.235z M29.21,18.5c-0.23,0.252-0.288,0.416-0.576,0.646
		c-0.237,0.188-0.922,0.094-1.123,0.016c0.05-1.549-0.022-3.039-0.115-4.604c0.417-0.1,0.936-0.021,1.238-0.035
		c0.145,0.059,0.663,0.381,0.698,0.611c0.029,1.262,0,1.975,0.058,3.004C29.39,18.254,29.325,18.37,29.21,18.5z M32.104,19.213
		c-0.138,0.006-0.642,0.014-0.879-0.008c-0.015-0.705,0.015-1.6-0.029-2.406c-0.043-0.764-0.028-1.512-0.021-2.268
		c0.13-0.051,0.749-0.021,0.937-0.016c0.028,0.771-0.021,1.578,0,2.363C32.14,17.721,32.104,18.399,32.104,19.213z M34.704,19.235
		c-0.224-0.059-0.54,0-0.756,0c-0.188-0.686-0.533-1.736-0.691-2.342c-0.015,0.426-0.022,1.801-0.022,2.342
		c-0.302,0.014-0.489-0.016-0.677-0.016c0.036-1.324-0.028-4.264-0.043-4.666c0.216,0,0.425-0.029,0.648-0.043
		c0.151,0.338,0.691,2.023,0.785,2.225c0.043-0.396,0.021-0.605,0.021-1.016c0.086-0.008,0.525-0.021,0.734,0
		C34.697,16.958,34.704,17.858,34.704,19.235z M36,19.235c-0.273-0.008-0.519-0.051-0.777,0.014c0-1.289-0.036-2.578-0.072-3.883
		c-0.107-0.064-1.145-0.035-1.289-0.07c-0.015-0.088-0.021-0.584-0.058-0.75c1.059-0.014,2.693-0.014,3.824-0.035
		c-0.036,0.287,0.008,0.654,0,0.928c-0.453,0.043-1.231,0.016-1.628,0.102V19.235z M37.649,17.391
		c-0.144,0.057-0.482-0.037-0.576,0.057c0.029,0.18,0.015,0.41,0.079,0.555c0.202,0.037,0.339,0.029,0.497,0
		c-0.007,0.383,0,0.828-0.021,1.189c-0.382,0.035-1.008,0.021-1.274,0c-0.058-1.088-0.015-2.299-0.087-3.365
		c0.274-0.006,1.03-0.057,1.354-0.014c-0.029,0.166-0.008,0.598-0.008,0.613c-0.144,0.021-0.432-0.016-0.54,0.021
		c0.015,0.129,0.021,0.252,0.008,0.381c0.151,0.043,0.359-0.014,0.519,0C37.657,17.03,37.664,17.29,37.649,17.391z M39.809,19.227
		c-0.144,0-0.532,0.029-0.698-0.035c-0.028-0.246-0.007-1.053-0.094-1.348h-0.165c-0.029,0.402,0.014,1.217,0,1.34
		c-0.151,0.035-0.656,0.057-0.829-0.016c0.065-1.533,0.015-3.104-0.028-4.615c0.525-0.08,1.065-0.086,1.498-0.072
		c0.201,0.281,0.353,1.008,0.36,1.447c0.007,0.41-0.008,0.777-0.051,1.189l-0.237,0.215c0.115,0.064,0.367,0.195,0.353,0.389
		C39.902,17.901,39.881,18.795,39.809,19.227z M41.407,19.219c-0.044-0.539-0.051-0.936-0.108-1.367h-0.237
		c-0.108,0.648-0.108,1-0.166,1.396c-0.259,0.008-0.634,0.021-0.835,0c0.165-1.57,0.259-3.133,0.496-4.703
		c0.368,0.008,0.778,0.008,1.167-0.043c0.245,1.463,0.389,2.945,0.685,4.717C42.148,19.27,41.645,19.249,41.407,19.219z
		 M44.503,19.184c-0.323,0.137-1.36,0.064-1.656,0.086c-0.273-0.885-0.353-1.758-0.353-2.693c0-0.648,0.021-1.498,0.194-2.082
		c0.331,0.008,0.627-0.014,1.044-0.014c0.288,0,0.433,0.078,0.433,0.244c0.05,0.52,0.015,1.088,0,1.607l-0.605,0.07
		c-0.05-0.322-0.021-0.625-0.086-0.842l-0.145,0.008c-0.079,0.316-0.05,0.691-0.064,1.008c-0.021,0.563,0.079,1.002,0.18,1.506
		h0.339c0.021-0.396-0.015-0.734-0.051-1.203c0.094,0.014,0.245,0.008,0.785,0.008c0.079,0,0.115,0.186,0.108,0.395
		C44.611,17.866,44.554,18.788,44.503,19.184z M46.34,19.206c-0.043-1.145-0.036-2.27-0.072-3.414
		c0.23-0.029,0.576-0.021,0.828-0.014c0.015,1.188,0.015,2.354,0.022,3.463C46.895,19.256,46.47,19.213,46.34,19.206z
		 M47.247,15.481c-0.28-0.021-1.016,0.059-1.325,0.045c-0.079,1.209-0.058,2.52-0.064,3.693c-0.303,0.051-0.569-0.035-0.828,0.029
		c0-1.289,0.028-2.463-0.13-3.752c-0.108-0.064-0.273-0.037-0.418-0.072c-0.014-0.086-0.021-0.713-0.058-0.879
		c0.908-0.021,1.938-0.043,2.838-0.021C47.247,14.754,47.298,15.215,47.247,15.481z M48.744,19.163
		c-0.122,0.129-0.555,0.051-0.82,0.029c-0.195-1.838-0.346-2.996-0.605-4.668c0.209-0.102,0.562-0.029,0.821-0.057
		c0.094,0.676,0.194,1.389,0.288,1.922c0.064-0.475,0.259-1.297,0.331-1.9c0.224,0,0.67-0.045,0.749,0.07
		C49.184,15.979,48.982,17.678,48.744,19.163z M51.258,19.176c-0.188,0.08-1.275,0.059-1.52,0.037
		c-0.008-1.326-0.029-3.111-0.008-4.697c0.425-0.064,0.958-0.021,1.376-0.014c-0.021,0.354,0.021,0.721-0.015,1.08
		c-0.194-0.043-0.446-0.008-0.627-0.008c0.008,0.131,0.015,0.275,0.015,0.498c0.194-0.021,0.382,0,0.584-0.016
		c0.071,0.275,0.05,0.527,0.05,0.844c-0.144-0.008-0.28,0.014-0.439,0c-0.021,0.418,0,0.82,0.008,1.268
		c0.187-0.021,0.41,0.008,0.598-0.014C51.286,18.391,51.271,19.053,51.258,19.176z M53.733,16.252
		c0.267,0.188,0.757,0.439,1.03,0.727c0.015,0.715-0.021,1.369-0.043,2.025c-0.008,0.137-0.108,0.201-0.317,0.201
		c-0.324,0-0.907,0.078-1.195-0.037c-0.224-0.137-0.144-1.568-0.072-1.721c0.123,0,0.274,0.029,0.439,0.08
		c0.029,0.23,0.021,0.488,0.108,0.691h0.259c0.051-0.174,0.015-0.361,0.029-0.541c-0.224-0.238-0.569-0.49-0.886-0.842
		c-0.151-0.764-0.102-1.801,0.007-2.369c0.512-0.051,1.066-0.037,1.491,0.035c0.158,0.381,0.144,1.26,0.194,1.764
		c-0.051,0.137-0.663,0.145-0.699-0.021c0.008-0.258-0.021-0.518-0.028-0.785l-0.324,0.102
		C53.705,15.792,53.727,16.022,53.733,16.252z M56.24,19.213c-0.281-0.016-0.685,0.064-0.864-0.037c0-1.281-0.036-2.643-0.115-3.875
		l-0.324-0.027c-0.036-0.281-0.043-0.729-0.021-0.793c0.986,0.014,2.153,0.057,3.334,0.021c0,0.338-0.014,0.699-0.058,0.863
		c-0.432,0.008-1.512-0.021-1.901,0.059C56.247,16.684,56.247,17.858,56.24,19.213z M58.155,19.163
		c-0.244,0.078-1.044,0.078-1.311,0.021c-0.144-0.635-0.201-1.246-0.223-1.881c-0.044-0.467,0-1.086,0.021-1.568
		c0.389-0.145,1.037-0.066,1.462-0.051c0.201,0.309,0.201,1.166,0.201,1.678C58.307,18.032,58.257,18.565,58.155,19.163z
		 M60.74,19.227c-0.144,0-0.604,0.029-0.771-0.035c0.015-0.332-0.021-0.814-0.058-1.297c-0.021-0.289,0.051-0.533-0.324-0.455
		c-0.028,0.404,0.015,1.65,0,1.773c-0.173,0.014-0.655,0.021-0.915-0.016c0.065-1.533,0.015-3.133-0.028-4.645
		c0.461-0.059,1.109-0.059,1.556-0.094c0.224,0.273,0.295,0.951,0.303,1.391c0.007,0.41-0.087,0.633-0.288,0.928
		c0.187,0.152,0.382,0.281,0.482,0.547C60.813,17.635,60.813,18.795,60.74,19.227z M63.973,19.235c-0.23-0.008-0.532,0.027-0.777,0
		c0-1.455,0.015-3.025-0.087-3.934c-0.216,0-0.288-0.014-0.353,0c0.016-0.172,0.008-0.389,0.013-0.605
		c-0.171,0.695-0.43,1.658-0.595,2.32c-0.021,0.699-0.015,1.563-0.029,2.203c-0.23-0.014-0.72,0.051-0.965-0.006
		c0.028-0.736-0.015-1.613-0.021-2.299c-0.158-0.807-0.331-1.67-0.627-2.398c0.245-0.027,0.721-0.027,0.958-0.021
		c0.094,0.455,0.115,0.93,0.26,1.332c0.115-0.346,0.173-0.971,0.331-1.324c0.232-0.014,0.475-0.012,0.695,0.008
		c0.002-0.02,0-0.039,0.002-0.059c0.943,0.107,1.895,0.016,2.823,0.059c-0.036,0.287,0.007,0.654,0,0.928
		c-0.454,0.043-1.231,0.016-1.628,0.102V19.235z M65.622,17.391c-0.144,0.057-0.482-0.037-0.576,0.057
		c0.029,0.18,0.015,0.41,0.079,0.555c0.202,0.037,0.339,0.029,0.497,0c-0.007,0.383,0,0.828-0.021,1.189
		c-0.382,0.035-1.008,0.021-1.274,0c-0.058-1.088-0.015-2.299-0.087-3.365c0.273-0.006,1.03-0.057,1.354-0.014
		c-0.029,0.166-0.008,0.598-0.008,0.613c-0.144,0.021-0.432-0.016-0.54,0.021c0.015,0.129,0.021,0.252,0.008,0.381
		c0.15,0.043,0.359-0.014,0.519,0C65.63,17.03,65.637,17.29,65.622,17.391z M68.387,19.284c-0.331-0.057-2.002-0.014-2.354-0.027
		c-0.087-1.607,0.036-3.084-0.065-4.711c0.217-0.072,0.728-0.051,0.979-0.029c-0.028,1.074-0.058,2.723-0.014,3.58
		c0.094,0.051,1.339-0.008,1.526,0.008C68.431,18.477,68.431,18.938,68.387,19.284z M68.495,17.643
		c-0.331-0.059-0.792-0.016-1.146-0.029c0-0.619-0.071-1.426-0.064-3.068c0.216-0.072,0.677-0.051,0.929-0.029
		c-0.107,1.16-0.058,1.729-0.058,1.938c0.094,0.051,0.224-0.006,0.411,0.008C68.538,16.836,68.538,17.297,68.495,17.643z
		 M69.791,19.213c-0.138,0.006-0.642,0.014-0.879-0.008c-0.015-0.705,0.015-1.6-0.029-2.406c-0.043-0.764-0.028-1.512-0.021-2.268
		c0.13-0.051,0.749-0.021,0.937-0.016c0.028,0.771-0.021,1.578,0,2.363C69.826,17.721,69.791,18.399,69.791,19.213z M71.303,19.235
		c-0.188-0.686-0.281-1.117-0.439-1.723c-0.015,0.426,0.028,1.262,0.028,1.68c-0.302,0.014-0.461-0.016-0.647-0.016
		c0.036-1.324-0.029-4.221-0.044-4.623c0.217,0,0.426-0.029,0.648-0.043c0.151,0.338,0.36,1.455,0.454,1.656
		c0.043-0.396-0.036-1.203-0.036-1.613c0.216-0.021,0.425-0.043,0.519-0.043c0.137,0,0.201,0.027,0.201,0.115
		c-0.079,1.547,0.044,3.184,0.015,4.609C71.778,19.176,71.519,19.235,71.303,19.235z M74.147,19.227
		c-0.576,0.029-1.066-0.064-1.636,0.008c-0.122-0.541-0.187-1.715-0.18-2.348c0.007-0.764-0.028-1.6,0.166-2.299
		c0.576-0.129,1.188-0.043,1.721,0.059c0,0.555,0.029,1.115-0.05,1.664c-0.173,0.014-0.482,0.006-0.67,0.014
		c-0.021-0.158,0.015-0.447-0.021-0.635h-0.26c-0.064,0.23-0.101,1.037-0.107,1.254c-0.008,0.223,0.043,0.85,0.064,1.139
		c0.079,0.027,0.353,0.035,0.396-0.029l-0.022-0.576c0-0.051-0.158-0.043-0.273-0.051c-0.021-0.193-0.058-0.504-0.043-0.857
		c0.224,0.008,0.576,0.043,0.807,0.043c0.13,0,0.194,0.029,0.194,0.094C74.263,17.512,74.276,18.522,74.147,19.227z"/>
	<path fill="#231F20" d="M9.207,15.59c0.015,0.576,0.021,1.576,0.145,2.42c0.151-0.016,0.223,0.021,0.353-0.051
		c-0.043-0.785,0.007-1.664-0.086-2.412C9.553,15.575,9.308,15.553,9.207,15.59z"/>
</g>
</svg>
